<?xml version="1.0" encoding="UTF-8"?>
<svg width="123px" height="16px" viewBox="0 0 123 16" version="1.1" xmlns="http://www.w3.org/2000/svg" xmlns:xlink="http://www.w3.org/1999/xlink">
    <!-- Generator: Sketch 41.2 (35397) - http://www.bohemiancoding.com/sketch -->
    <title>Group 3</title>
    <desc>Created with Sketch.</desc>
    <defs></defs>
    <g id="Page-1" stroke="none" stroke-width="1" fill="none" fill-rule="evenodd">
        <g id="Group-3" transform="translate(-4.000000, -4.000000)">
            <rect id="Rectangle-3-Copy" x="0" y="0" width="127" height="24"></rect>
            <path d="M11.667,11.293 C11.191,10.953 9.236,9.763 8.573,9.406 C8.607,9.304 8.641,9.219 8.658,9.117 L11.803,9.117 L11.803,8.08 L8.845,8.08 C8.879,7.859 8.879,7.672 8.879,7.468 L8.879,6.482 L11.378,6.482 L11.378,5.462 L6.754,5.462 C6.924,5.054 7.094,4.646 7.213,4.221 L6.074,4 C5.683,5.275 5.02,6.55 4.153,7.383 C4.442,7.519 4.935,7.825 5.173,7.995 C5.547,7.587 5.921,7.06 6.244,6.482 L7.672,6.482 L7.672,7.468 C7.672,7.672 7.672,7.859 7.638,8.08 L4.153,8.08 L4.153,9.117 L7.417,9.117 C7.06,10.154 6.159,11.276 4,12.126 C4.289,12.313 4.646,12.721 4.799,12.993 C6.584,12.177 7.604,11.225 8.182,10.256 C9.032,10.834 10.29,11.735 10.783,12.16 L11.667,11.293 Z M15.713,13.639 L15.713,15.237 L7.859,15.237 L7.859,13.639 L15.713,13.639 Z M7.859,17.906 L7.859,16.223 L15.713,16.223 L15.713,17.906 L7.859,17.906 Z M6.618,19.572 L7.859,19.572 L7.859,18.943 L15.713,18.943 L15.713,19.538 L16.988,19.538 L16.988,12.602 L6.618,12.602 L6.618,19.572 Z M17.192,10.154 L13.69,10.154 L13.69,6.55 L17.192,6.55 L17.192,10.154 Z M12.5,5.411 L12.5,11.31 L18.433,11.31 L18.433,5.411 L12.5,5.411 Z M34.498,11.514 C35.892,11.514 36.266,10.97 36.419,8.879 C36.062,8.794 35.552,8.59 35.246,8.386 C35.178,10.069 35.059,10.341 34.396,10.341 L31.778,10.341 C30.979,10.341 30.843,10.239 30.843,9.712 L30.843,7.961 C32.458,7.468 34.294,6.839 35.637,6.193 L34.77,5.275 C33.801,5.819 32.288,6.414 30.843,6.907 L30.843,4.051 L29.602,4.051 L29.602,9.712 C29.602,11.123 30.027,11.514 31.676,11.514 L34.498,11.514 Z M23.193,15.084 L23.193,13.554 L26.763,13.554 L26.763,15.084 L23.193,15.084 Z M26.763,11.089 L26.763,12.551 L23.193,12.551 L23.193,11.089 L26.763,11.089 Z M28.021,10.035 L22.003,10.035 L22.003,19.47 L23.193,19.47 L23.193,16.07 L26.763,16.07 L26.763,18.025 C26.763,18.229 26.695,18.297 26.491,18.297 C26.253,18.314 25.522,18.314 24.723,18.28 C24.91,18.62 25.097,19.164 25.148,19.504 C26.236,19.504 26.933,19.487 27.426,19.3 C27.885,19.079 28.021,18.705 28.021,18.042 L28.021,10.035 Z M25.913,5.581 C26.321,6.125 26.712,6.754 27.086,7.366 C25.845,7.417 24.621,7.485 23.516,7.519 C24.043,6.567 24.587,5.428 25.063,4.408 L23.822,4.034 C23.448,5.071 22.802,6.516 22.207,7.587 L20.983,7.621 L21.119,8.828 C22.87,8.726 25.301,8.607 27.681,8.471 C27.868,8.845 28.004,9.168 28.106,9.457 L29.16,8.913 C28.786,7.859 27.8,6.261 26.899,5.105 L25.913,5.581 Z M31.812,18.314 C30.979,18.314 30.843,18.212 30.843,17.651 L30.843,15.628 C32.577,15.118 34.481,14.472 35.807,13.707 L34.974,12.772 C33.988,13.418 32.373,14.064 30.843,14.574 L30.843,11.888 L29.602,11.888 L29.602,17.651 C29.602,19.062 30.044,19.436 31.71,19.436 L34.617,19.436 C36.062,19.436 36.453,18.841 36.606,16.546 C36.249,16.461 35.739,16.257 35.45,16.053 C35.365,17.974 35.246,18.314 34.532,18.314 L31.812,18.314 Z M50.614,6.873 L45.225,6.873 L45.225,5.751 L50.614,5.751 L50.614,6.873 Z M45.225,9.661 L50.614,9.661 L50.614,10.698 C48.693,10.783 46.84,10.868 45.225,10.919 L45.225,9.661 Z M50.614,8.862 L45.225,8.862 L45.225,7.689 L50.614,7.689 L50.614,8.862 Z M44.086,10.953 L42.998,10.987 L43.151,11.99 C45.157,11.922 47.843,11.786 50.614,11.633 L50.614,12.381 L51.753,12.381 L51.753,11.565 L53.419,11.48 L53.436,10.579 L51.753,10.647 L51.753,5.751 L53.249,5.751 L53.249,4.782 L42.777,4.782 L42.777,5.751 L44.086,5.751 L44.086,10.953 Z M42.709,12.024 L42.505,11.038 L41.179,11.497 L41.179,8.284 L42.709,8.284 L42.709,7.094 L41.179,7.094 L41.179,4.051 L40.006,4.051 L40.006,7.094 L38.102,7.094 L38.102,8.284 L40.006,8.284 L40.006,11.888 C39.19,12.177 38.459,12.398 37.881,12.568 L38.238,13.809 C38.782,13.588 39.377,13.367 40.006,13.112 L40.006,18.076 C40.006,18.297 39.938,18.348 39.734,18.348 C39.564,18.365 38.952,18.365 38.306,18.348 C38.476,18.688 38.629,19.198 38.663,19.521 C39.632,19.521 40.244,19.487 40.635,19.283 C41.043,19.079 41.179,18.739 41.179,18.076 L41.179,12.636 L42.709,12.024 Z M46.806,12.823 L46.602,12.874 L42.522,12.874 L42.522,13.911 L46.126,13.911 C45.854,14.591 45.514,15.22 45.089,15.798 C44.46,15.339 43.78,14.88 43.202,14.489 L42.488,15.135 C43.117,15.56 43.797,16.07 44.46,16.563 C43.644,17.481 42.675,18.212 41.672,18.654 C41.91,18.875 42.216,19.283 42.335,19.555 C43.406,19.011 44.426,18.246 45.293,17.226 C45.769,17.651 46.211,18.025 46.5,18.348 L47.231,17.583 C46.908,17.243 46.432,16.852 45.922,16.444 C46.585,15.492 47.146,14.37 47.486,13.112 L46.806,12.823 Z M51.787,13.877 C51.413,14.778 50.92,15.577 50.291,16.257 C49.747,15.56 49.322,14.761 48.999,13.877 L51.787,13.877 Z M52.45,12.806 L52.246,12.84 L47.588,12.84 L47.588,13.877 L48.013,13.877 C48.387,15.033 48.88,16.087 49.543,16.971 C48.676,17.736 47.622,18.297 46.551,18.654 C46.772,18.892 47.044,19.3 47.146,19.572 C48.251,19.147 49.305,18.569 50.223,17.77 C50.954,18.535 51.855,19.164 52.875,19.589 C53.028,19.266 53.368,18.841 53.623,18.603 C52.603,18.246 51.719,17.702 50.988,17.005 C51.923,15.968 52.671,14.659 53.079,13.061 L52.45,12.806 Z M58.247,4.102 C57.431,6.737 56.054,9.372 54.558,11.055 C54.813,11.344 55.17,11.939 55.323,12.228 C55.867,11.582 56.394,10.834 56.887,10.018 L56.887,19.47 L58.094,19.47 L58.094,7.774 C58.604,6.686 59.063,5.547 59.437,4.408 L58.247,4.102 Z M61.171,8.284 L64.265,8.284 L64.265,10.239 L61.171,10.239 L61.171,8.284 Z M65.591,6.091 C65.302,6.533 64.962,6.992 64.639,7.349 L61.273,7.349 C61.664,6.941 62.004,6.516 62.327,6.091 L65.591,6.091 Z M68.634,10.239 L65.421,10.239 L65.421,8.284 L68.634,8.284 L68.634,10.239 Z M69.45,11.599 C68.889,12.16 67.937,12.925 67.121,13.486 C66.815,12.772 66.543,11.99 66.339,11.174 L69.841,11.174 L69.841,7.349 L66.05,7.349 C66.509,6.805 66.951,6.159 67.291,5.564 L66.509,5.037 L66.288,5.105 L66.016,5.105 L66.016,5.122 L62.99,5.122 C63.177,4.85 63.347,4.561 63.5,4.289 L62.276,4.068 C61.562,5.394 60.287,7.043 58.536,8.284 C58.808,8.437 59.199,8.777 59.403,9.032 C59.607,8.879 59.811,8.726 59.998,8.556 L59.998,11.174 L63.092,11.174 C61.885,11.922 60.338,12.568 58.944,12.993 C59.148,13.197 59.522,13.656 59.675,13.877 C60.729,13.486 61.885,12.976 62.939,12.381 C63.194,12.602 63.432,12.823 63.636,13.078 C62.48,13.979 60.576,14.897 59.08,15.339 C59.318,15.56 59.59,15.951 59.726,16.206 C61.154,15.662 62.939,14.727 64.163,13.792 C64.367,14.132 64.52,14.455 64.656,14.795 C63.279,16.138 60.746,17.549 58.723,18.178 C58.978,18.433 59.25,18.841 59.403,19.13 C61.239,18.433 63.449,17.158 64.945,15.883 C65.115,16.954 64.911,17.855 64.469,18.195 C64.163,18.467 63.874,18.501 63.466,18.501 C63.126,18.501 62.616,18.484 62.055,18.433 C62.259,18.722 62.361,19.215 62.395,19.521 C62.871,19.538 63.33,19.555 63.687,19.555 C64.367,19.538 64.826,19.419 65.302,19.011 C66.679,17.94 66.526,14.115 63.823,11.837 C64.146,11.633 64.469,11.412 64.758,11.174 L65.251,11.174 C66.05,14.54 67.512,17.379 69.807,18.824 C69.994,18.518 70.368,18.059 70.657,17.821 C69.348,17.107 68.311,15.866 67.529,14.353 C68.43,13.809 69.518,13.044 70.385,12.33 L69.45,11.599 Z M78.8,13.248 C78.443,12.772 76.845,10.987 76.199,10.375 L76.199,8.862 L78.715,8.862 L78.715,7.672 L76.199,7.672 L76.199,4.051 L74.992,4.051 L74.992,7.672 L72.187,7.672 L72.187,8.862 L74.822,8.862 C74.21,11.174 73.003,13.792 71.779,15.237 C72,15.543 72.34,16.053 72.493,16.393 C73.428,15.237 74.312,13.401 74.992,11.497 L74.992,19.487 L76.199,19.487 L76.199,11.769 C76.862,12.619 77.661,13.673 78.001,14.251 L78.8,13.248 Z M85.77,18.178 C85.634,18.178 85.532,18.144 85.464,18.076 C85.379,17.991 85.362,17.685 85.362,17.141 L85.362,5.02 L79.718,5.02 L79.718,10.426 C79.718,13.027 79.48,16.376 77.202,18.705 C77.474,18.875 77.95,19.317 78.137,19.555 C80.585,17.073 80.959,13.214 80.959,10.426 L80.959,6.21 L84.121,6.21 L84.121,17.022 C84.121,18.484 84.24,18.773 84.495,19.028 C84.767,19.249 85.158,19.351 85.481,19.351 L86.365,19.351 C86.705,19.351 86.994,19.283 87.249,19.113 C87.504,18.943 87.657,18.671 87.742,18.195 C87.827,17.753 87.895,16.58 87.912,15.628 C87.555,15.509 87.113,15.271 86.824,15.033 C86.824,16.155 86.807,17.039 86.773,17.447 C86.739,17.804 86.688,17.974 86.603,18.059 C86.518,18.127 86.382,18.178 86.246,18.178 L85.77,18.178 Z M89.952,18.263 L91.533,18.263 L91.533,13.316 L93.59,13.316 C96.31,13.316 98.18,12.092 98.18,9.457 C98.18,6.737 96.31,5.802 93.505,5.802 L89.952,5.802 L89.952,18.263 Z M91.533,12.041 L91.533,7.077 L93.318,7.077 C95.511,7.077 96.616,7.655 96.616,9.457 C96.616,11.242 95.579,12.041 93.386,12.041 L91.533,12.041 Z M105.405,18.484 C107.02,18.484 108.244,17.838 109.23,16.699 L108.363,15.713 C107.564,16.58 106.663,17.107 105.473,17.107 C103.093,17.107 101.597,15.135 101.597,11.99 C101.597,8.879 103.161,6.941 105.524,6.941 C106.595,6.941 107.428,7.434 108.074,8.131 L108.924,7.111 C108.21,6.312 107.02,5.564 105.507,5.564 C102.345,5.564 99.982,8.012 99.982,12.041 C99.982,16.087 102.311,18.484 105.405,18.484 Z M112.834,9.848 L117.356,9.848 L117.356,8.709 L115.843,8.709 L115.843,4 L114.67,4 L114.67,8.709 L112.834,8.709 L112.834,4.391 L111.695,4.391 L111.695,11.021 C111.695,13.588 111.542,16.631 110.352,18.773 C110.641,18.943 111.066,19.3 111.27,19.504 C112.273,17.787 112.647,15.611 112.766,13.418 L115.18,13.418 L115.18,19.572 L116.336,19.572 L116.336,12.279 L112.817,12.279 C112.834,11.854 112.834,11.429 112.834,11.021 L112.834,9.848 Z M124.258,10.324 C123.901,12.109 123.272,13.656 122.456,14.948 C121.64,13.605 121.045,12.041 120.637,10.324 L124.258,10.324 Z M124.853,9.1 L124.632,9.151 L124.428,9.151 L124.428,9.168 L119.277,9.168 L119.277,5.972 L125.839,5.972 L125.839,4.799 L119.277,4.799 L119.277,4.782 L118.087,4.782 L118.087,9.678 C118.087,12.381 117.951,16.189 116.455,18.909 C116.744,19.028 117.254,19.368 117.475,19.555 C118.937,16.937 119.243,13.146 119.277,10.324 L119.532,10.324 C120.008,12.483 120.722,14.421 121.708,16.002 C120.824,17.107 119.787,17.957 118.648,18.501 C118.903,18.722 119.26,19.198 119.43,19.504 C120.552,18.909 121.555,18.093 122.439,17.039 C123.289,18.11 124.309,18.96 125.516,19.572 C125.703,19.232 126.094,18.756 126.383,18.518 C125.125,17.957 124.071,17.107 123.221,16.019 C124.36,14.302 125.21,12.109 125.635,9.372 L124.853,9.1 Z" id="智能摄像机PC版" fill="#FFFFFF"></path>
        </g>
    </g>
</svg>