<?xml version="1.0" encoding="UTF-8" standalone="no"?>
<svg width="35px" height="28px" viewBox="0 0 35 28" version="1.1" xmlns="http://www.w3.org/2000/svg" xmlns:xlink="http://www.w3.org/1999/xlink">
    <!-- Generator: Sketch 40.3 (33839) - http://www.bohemiancoding.com/sketch -->
    <title>Group 2</title>
    <desc>Created with Sketch.</desc>
    <defs></defs>
    <g id="导航" stroke="none" stroke-width="1" fill="none" fill-rule="evenodd">
        <g id="行车记录仪-copy" transform="translate(-22.000000, -30.000000)">
            <g id="Group" transform="translate(22.000000, 30.000000)">
                <g id="Group-2">
                    <path d="M26.3380769,17.6071647 C26.0046957,17.6071647 25.6966387,17.431165 25.529948,17.1454631 C25.3632574,16.8597612 25.3632574,16.5077619 25.529948,16.2220599 C25.6966387,15.936358 26.0046957,15.7603583 26.3380769,15.7603584 C26.8534397,15.7603584 27.2712237,16.1737801 27.2712237,16.6837615 C27.2712237,17.193743 26.8534397,17.6071646 26.3380769,17.6071647" id="Shape" fill="#FFFFFF"></path>
                    <path d="M20.0052098,17.9171801 C19.4770979,15.2156169 16.388986,13.5371047 13.1129021,14.1659932 C9.83234267,14.7948817 7.60576923,17.4986592 8.13611889,20.2002224 C8.66870631,22.904 11.7545804,24.5847266 15.0329021,23.9536237 C18.308986,23.3225208 20.5377972,20.6209577 20.0052098,17.9171801 L20.0052098,17.9171801 Z M12.8152797,21.2742045 C11.8082867,21.7392277 10.7050699,21.5089305 10.3537413,20.7604646 C9.99793705,20.0119988 10.5305245,19.0288069 11.5397553,18.5637838 C12.5467483,18.0987606 13.6499651,18.3268434 14.0035315,19.0753092 C14.3570979,19.8237751 13.8245105,20.8069669 12.8175175,21.2742045 L12.8152797,21.2742045 Z M15.1380769,19.0000198 C14.7775135,18.9996242 14.4445524,18.808909 14.2646169,18.4997146 C14.0846814,18.1905202 14.0851079,17.8098208 14.2657358,17.501022 C14.4463637,17.1922232 14.7797513,17.002239 15.1403147,17.0026345 C15.6976974,17.0026345 16.1495455,17.4497645 16.1495455,18.0013272 C16.1495455,18.5528899 15.6976974,19.0000198 15.1403147,19.0000198 L15.1380769,19.0000198 Z" id="Shape" fill="#000000"></path>
                    <path d="M25.3042308,13.0499376 C25.3042308,12.7487797 28.2356993,10.0472166 25.3042308,8.36648996 C22.3727622,6.68354898 17.0133217,9.24117639 17.1744406,8.96437688 C19.4770979,5.04268151 16.1831119,3.8026197 14.5047902,3.8026197 C10.4991958,3.8026197 0.0264685227,12.4963386 0.0264685227,18.0013272 C0.0264685227,23.5085301 7.01723776,27.9727525 15.6438112,27.9727525 C24.2681468,27.9727525 31.194021,23.5085301 31.194021,18.0013272 C31.194021,13.3510954 25.3042308,13.3510954 25.3042308,13.0499376 L25.3042308,13.0499376 Z M16.0510839,24.9191004 C10.5394755,25.6852814 5.66562938,23.4332407 5.16213287,19.8879926 C4.65863636,16.3449589 8.71793707,12.850642 14.2273077,12.0822465 C19.7389161,11.3182799 24.6127622,13.5681063 25.1184965,17.1133544 C25.6197553,20.656388 21.5604545,24.1529194 16.0510839,24.9191004 L16.0510839,24.9191004 Z" id="Shape" fill="#D42B2B"></path>
                    <path d="M32.5277273,2.72199445 C29.188986,-0.400303996 24.708986,0.0470040161 24.708986,0.0470040161 C23.8773113,0.0542519211 23.2055944,0.720927304 23.2007343,1.54393574 L23.2007343,1.23392031 C23.2007343,2.05546125 23.8854895,2.6865641 24.7045105,2.68877849 C24.7045105,2.68877849 29.0077273,2.19718257 31.0105245,5.04046709 C33.0133217,7.88596602 32.192063,11.0304084 32.1920629,11.0304084 C32.1258337,11.4047333 32.233561,11.7886638 32.4853375,12.075613 C32.737114,12.3625621 33.1061395,12.5219859 33.489965,12.509625 L33.1453497,12.509625 C33.9777972,12.509625 34.7453497,11.8497349 34.8214336,11.0326228 C34.8214336,11.0326228 35.8664686,5.84429286 32.5277273,2.72199445" id="Shape" fill="#E7920C"></path>
                    <path d="M29.1285664,5.96387026 C27.3092657,4.34293235 25.2057692,4.90981774 25.2057692,4.90981774 C24.6426759,4.99629443 24.222612,5.46882484 24.2077273,6.03251653 L24.2077273,5.75128822 C24.2077273,6.29824404 24.6508042,6.7123361 25.2102447,6.71012171 C25.2102447,6.71012171 26.9445105,6.44217978 27.9156993,7.58259375 C28.8868881,8.72300772 28.1931818,10.2930145 28.1931818,10.2930145 C28.041014,10.8200408 28.3654895,11.2452048 28.9271678,11.2452048 L29.0278671,11.2452048 C29.5873077,11.2452048 30.1243706,10.8111832 30.2049301,10.2642274 C30.2049301,10.2642274 30.9501049,7.58480817 29.1308042,5.96165584 L29.1285664,5.96387026 Z" id="Path" fill="#E99114"></path>
                </g>
            </g>
        </g>
    </g>
</svg>